<svg width="60" height="60" viewBox="0 0 60 60" fill="none" xmlns="http://www.w3.org/2000/svg">
<path d="M45.3061 16.7123C45.3053 16.4875 45.3001 16.2638 45.2901 16.0412V3.35126L41.7818 6.85951C38.9105 3.34491 34.5425 1.1001 29.65 1.1001C24.5584 1.1001 20.0351 3.53039 17.1758 7.29407L22.9262 13.105C23.4898 12.0628 24.2904 11.1676 25.2556 10.4915C26.2596 9.70805 27.6821 9.06748 29.6498 9.06748C29.8875 9.06748 30.071 9.09526 30.2058 9.14759C32.6438 9.34002 34.7571 10.6855 36.0014 12.6384L31.931 16.7088C37.0867 16.6886 42.9111 16.6767 45.3056 16.7114" fill="#1C3AA9"/>
<path d="M29.5585 1.10059C29.3337 1.10133 29.11 1.10652 28.8874 1.1166H16.1975L19.7057 4.62485C16.1911 7.49616 13.9463 11.8642 13.9463 16.7567C13.9463 21.8482 16.3766 26.3715 20.1403 29.2309L25.9512 23.4804C24.909 22.9169 24.0138 22.1163 23.3377 21.151C22.5543 20.1471 21.9137 18.7246 21.9137 16.7569C21.9137 16.5192 21.9414 16.3357 21.9938 16.2009C22.1862 13.7629 23.5317 11.6496 25.4846 10.4052L29.555 14.4757C29.5348 9.31997 29.5229 3.49559 29.5576 1.10103" fill="#4285F4"/>
<path d="M13.9468 16.7563C13.9475 16.9812 13.9527 17.2049 13.9628 17.4275V30.1174L17.471 26.6092C20.3424 30.1238 24.7104 32.3686 29.6029 32.3686C34.6944 32.3686 39.2177 29.9383 42.0771 26.1746L36.3266 20.3637C35.7631 21.4059 34.9625 22.3011 33.9972 22.9772C32.9933 23.7606 31.5708 24.4012 29.6031 24.4012C29.3654 24.4012 29.1819 24.3734 29.0471 24.3211C26.6091 24.1287 24.4958 22.7832 23.2514 20.8303L27.3219 16.7599C22.1662 16.7801 16.3418 16.792 13.9472 16.7573" fill="#ABABAB"/>
<path d="M16.5886 38.4317C16.2072 38.4317 15.8653 38.5041 15.5628 38.6487C15.2604 38.7901 15.0039 38.9923 14.7935 39.2553C14.5864 39.5183 14.427 39.8372 14.3152 40.2119C14.2067 40.5834 14.1524 40.9993 14.1524 41.4595V42.7861C14.1524 43.2496 14.2067 43.6671 14.3152 44.0386C14.427 44.4101 14.5848 44.7274 14.7886 44.9904C14.9924 45.2534 15.239 45.4555 15.5283 45.5969C15.8176 45.7383 16.1431 45.809 16.5047 45.809C16.8762 45.809 17.2017 45.7547 17.4811 45.6462C17.7638 45.5378 18.0005 45.3816 18.1912 45.1778C18.3819 44.9707 18.5282 44.7208 18.6301 44.4282C18.7353 44.1356 18.7978 43.8036 18.8175 43.4321H17.9052C17.8822 43.7181 17.8427 43.963 17.7868 44.1668C17.731 44.3674 17.6488 44.5334 17.5403 44.6649C17.4351 44.7931 17.297 44.8884 17.126 44.9509C16.9584 45.0101 16.7512 45.0397 16.5047 45.0397C16.2417 45.0397 16.0181 44.9821 15.834 44.8671C15.6499 44.7487 15.5003 44.5876 15.3853 44.3838C15.2735 44.18 15.1913 43.9416 15.1387 43.6688C15.0894 43.3959 15.0648 43.1017 15.0648 42.786V41.4497C15.0648 41.1111 15.0943 40.8036 15.1535 40.5275C15.216 40.2513 15.3097 40.0163 15.4346 39.8223C15.5595 39.6283 15.7173 39.4787 15.908 39.3736C16.0987 39.2651 16.3256 39.2108 16.5885 39.2108C16.8088 39.2108 16.9978 39.2437 17.1556 39.3094C17.3134 39.3719 17.4449 39.4705 17.5501 39.6053C17.6553 39.7368 17.7359 39.9045 17.7918 40.1083C17.8477 40.3121 17.8855 40.5554 17.9052 40.8381H18.8175C18.8011 40.4502 18.7402 40.1067 18.635 39.8075C18.5298 39.5083 18.3835 39.2568 18.1962 39.053C18.0088 38.8492 17.7803 38.6946 17.5107 38.5894C17.2444 38.4842 16.937 38.4316 16.5885 38.4316L16.5886 38.4317ZM38.8586 38.4317C38.4773 38.4317 38.1354 38.5041 37.8329 38.6487C37.5304 38.7901 37.274 38.9923 37.0636 39.2553C36.8565 39.5183 36.697 39.8372 36.5853 40.2119C36.4768 40.5834 36.4225 40.9993 36.4225 41.4595V42.7861C36.4225 43.2496 36.4768 43.6671 36.5853 44.0386C36.697 44.4101 36.8548 44.7274 37.0587 44.9904C37.2625 45.2534 37.5091 45.4555 37.7984 45.5969C38.0877 45.7383 38.4131 45.809 38.7748 45.809C39.1463 45.809 39.4717 45.7547 39.7512 45.6462C40.0339 45.5378 40.2706 45.3816 40.4613 45.1778C40.652 44.9707 40.7983 44.7208 40.9002 44.4282C41.0054 44.1356 41.0679 43.8036 41.0876 43.4321H40.1753C40.1523 43.7181 40.1129 43.963 40.057 44.1668C40.0011 44.3674 39.9189 44.5334 39.8104 44.6649C39.7052 44.7931 39.5671 44.8884 39.3961 44.9509C39.2285 45.0101 39.0214 45.0397 38.7748 45.0397C38.5118 45.0397 38.2882 44.9821 38.1042 44.8671C37.9201 44.7487 37.7705 44.5876 37.6554 44.3838C37.5436 44.18 37.4614 43.9416 37.4088 43.6688C37.3595 43.3959 37.3349 43.1017 37.3349 42.786V41.4497C37.3349 41.1111 37.3645 40.8036 37.4236 40.5275C37.4861 40.2513 37.5798 40.0163 37.7047 39.8223C37.8297 39.6283 37.9875 39.4787 38.1781 39.3736C38.3688 39.2651 38.5956 39.2108 38.8586 39.2108C39.0789 39.2108 39.2679 39.2437 39.4257 39.3094C39.5835 39.3719 39.715 39.4705 39.8202 39.6053C39.9254 39.7368 40.006 39.9045 40.0619 40.1083C40.1177 40.3121 40.1555 40.5554 40.1753 40.8381H41.0875C41.0711 40.4502 41.0103 40.1067 40.9051 39.8075C40.7999 39.5083 40.6536 39.2568 40.4662 39.053C40.2788 38.8491 40.0503 38.6946 39.7808 38.5894C39.5145 38.4842 39.2071 38.4316 38.8586 38.4316L38.8586 38.4317ZM21.7865 38.5304L19.4737 45.7103H20.4008L20.958 43.8364H23.3842L23.9513 45.7103H24.8784L22.5607 38.5304H21.7865ZM25.8547 38.5304V45.7103H26.7571V42.8994H28.1428C28.488 42.8994 28.7938 42.8518 29.0601 42.7564C29.3263 42.6578 29.5499 42.5164 29.7307 42.3323C29.9148 42.1482 30.0529 41.9214 30.1449 41.6518C30.2403 41.3789 30.2879 41.0699 30.2879 40.7247C30.2879 40.4058 30.2403 40.1132 30.1449 39.8469C30.0529 39.5773 29.9164 39.3456 29.7356 39.1516C29.5548 38.9543 29.3296 38.8015 29.0601 38.693C28.7938 38.5845 28.488 38.5303 28.1428 38.5303L25.8547 38.5304ZM30.9783 38.5304V39.3095H32.8621V45.7103H33.7645V39.3095H35.6532V38.5304H30.9783ZM42.3056 38.5304V45.7103H43.208V42.3915H46.0978V45.7103H47.0051V38.5304H46.0978V41.6174H43.208V38.5304H42.3056ZM50.4275 38.5304L48.1147 45.7103H49.0418L49.599 43.8364H52.0252L52.5923 45.7103H53.5194L51.2017 38.5304H50.4275ZM26.757 39.3095H28.1427C28.363 39.3095 28.5504 39.3489 28.7049 39.4279C28.8627 39.5067 28.9909 39.6119 29.0895 39.7435C29.1915 39.875 29.2654 40.0278 29.3115 40.2021C29.3608 40.373 29.3854 40.5505 29.3854 40.7347C29.3854 40.9385 29.3608 41.1259 29.3115 41.2968C29.2654 41.4645 29.1915 41.6108 29.0895 41.7357C28.9909 41.8573 28.8627 41.9527 28.7049 42.0217C28.5504 42.0908 28.363 42.1253 28.1427 42.1253H26.757V39.3095ZM22.171 39.7928L23.1523 43.0573H21.1946L22.171 39.7928ZM50.812 39.7928L51.7934 43.0573H49.8356L50.812 39.7928ZM8.33415 40.2761C8.10731 40.2761 7.91169 40.3336 7.74731 40.4487C7.58622 40.5637 7.45143 40.7199 7.34295 40.9171L7.32816 40.3747H6.47998V45.7103H7.35283V41.8934C7.43502 41.6665 7.55173 41.4874 7.70296 41.3559C7.85747 41.2244 8.05308 41.1586 8.2898 41.1586C8.36541 41.1586 8.43281 41.162 8.49198 41.1685C8.55116 41.1718 8.61526 41.18 8.68431 41.1931L8.67937 40.3449C8.66622 40.3383 8.64485 40.3317 8.61526 40.3252C8.58897 40.3153 8.55938 40.3071 8.5265 40.3005C8.49362 40.294 8.45911 40.289 8.42294 40.2857C8.39006 40.2791 8.36048 40.2759 8.33418 40.2759L8.33415 40.2761ZM11.2683 40.2761C11.0151 40.2761 10.7702 40.3204 10.5335 40.4092C10.2968 40.498 10.0864 40.6443 9.90234 40.8481C9.72153 41.0486 9.57523 41.3116 9.46345 41.6371C9.35167 41.9593 9.29578 42.3554 9.29578 42.8256V43.4272C9.29578 43.8348 9.34346 44.1883 9.43879 44.4874C9.53413 44.7866 9.67057 45.0348 9.84808 45.2321C10.0289 45.426 10.2475 45.5707 10.504 45.666C10.7604 45.7614 11.048 45.8091 11.3669 45.8091C11.5971 45.8091 11.8026 45.786 11.9834 45.74C12.1675 45.694 12.3302 45.6348 12.4716 45.5625C12.6129 45.4869 12.7346 45.4014 12.8365 45.3061C12.9384 45.2107 13.0255 45.1121 13.0978 45.0102L12.6442 44.4579C12.5718 44.5466 12.4946 44.6288 12.4124 44.7044C12.3302 44.7768 12.2398 44.8409 12.1412 44.8968C12.0425 44.9494 11.9341 44.9905 11.8157 45.02C11.6974 45.0496 11.5642 45.0644 11.4163 45.0644C11.0119 45.0644 10.7012 44.9346 10.4842 44.6748C10.2706 44.4151 10.1637 43.9993 10.1637 43.4272V43.3039H13.1422V42.796C13.1422 42.3884 13.1077 42.0283 13.0387 41.716C12.9696 41.4037 12.8595 41.1407 12.7083 40.927C12.5571 40.7133 12.3631 40.5522 12.1264 40.4437C11.8897 40.332 11.6037 40.2761 11.2683 40.2761L11.2683 40.2761ZM11.2683 41.0256C11.459 41.0256 11.6168 41.0601 11.7417 41.1292C11.8666 41.1982 11.9653 41.2952 12.0376 41.4201C12.1132 41.5451 12.1675 41.6947 12.2003 41.8689C12.2365 42.0398 12.2595 42.2289 12.2694 42.436V42.5543H10.1686C10.1818 42.2552 10.2179 42.007 10.2771 41.8097C10.3363 41.6124 10.4135 41.4563 10.5089 41.3412C10.6075 41.2229 10.7209 41.1407 10.8491 41.0947C10.9774 41.0486 11.1171 41.0256 11.2683 41.0256L11.2683 41.0256Z" fill="#685870"/>
<path d="M4.98047 55.3789H3.5V54.6016H4.98047C5.23828 54.6016 5.44661 54.5599 5.60547 54.4766C5.76432 54.3932 5.88021 54.2786 5.95312 54.1328C6.02865 53.9844 6.06641 53.8151 6.06641 53.625C6.06641 53.4453 6.02865 53.2773 5.95312 53.1211C5.88021 52.9622 5.76432 52.8346 5.60547 52.7383C5.44661 52.6419 5.23828 52.5938 4.98047 52.5938H3.80078V57.5H2.82031V51.8125H4.98047C5.42057 51.8125 5.79427 51.8906 6.10156 52.0469C6.41146 52.2005 6.64714 52.4141 6.80859 52.6875C6.97005 52.9583 7.05078 53.2682 7.05078 53.6172C7.05078 53.9844 6.97005 54.2995 6.80859 54.5625C6.64714 54.8255 6.41146 55.0273 6.10156 55.168C5.79427 55.3086 5.42057 55.3789 4.98047 55.3789ZM8.78125 54.0781V57.5H7.83984V53.2734H8.73828L8.78125 54.0781ZM10.0742 53.2461L10.0664 54.1211C10.0091 54.1107 9.94661 54.1029 9.87891 54.0977C9.8138 54.0924 9.7487 54.0898 9.68359 54.0898C9.52214 54.0898 9.38021 54.1133 9.25781 54.1602C9.13542 54.2044 9.03255 54.2695 8.94922 54.3555C8.86849 54.4388 8.80599 54.5404 8.76172 54.6602C8.71745 54.7799 8.69141 54.9141 8.68359 55.0625L8.46875 55.0781C8.46875 54.8125 8.49479 54.5664 8.54688 54.3398C8.59896 54.1133 8.67708 53.9141 8.78125 53.7422C8.88802 53.5703 9.02083 53.4362 9.17969 53.3398C9.34115 53.2435 9.52734 53.1953 9.73828 53.1953C9.79557 53.1953 9.85677 53.2005 9.92188 53.2109C9.98958 53.2214 10.0404 53.2331 10.0742 53.2461ZM11.6719 53.2734V57.5H10.7266V53.2734H11.6719ZM10.6641 52.1641C10.6641 52.0208 10.7109 51.9023 10.8047 51.8086C10.901 51.7122 11.0339 51.6641 11.2031 51.6641C11.3698 51.6641 11.5013 51.7122 11.5977 51.8086C11.694 51.9023 11.7422 52.0208 11.7422 52.1641C11.7422 52.3047 11.694 52.4219 11.5977 52.5156C11.5013 52.6094 11.3698 52.6562 11.2031 52.6562C11.0339 52.6562 10.901 52.6094 10.8047 52.5156C10.7109 52.4219 10.6641 52.3047 10.6641 52.1641ZM14.0781 56.7539L15.1133 53.2734H16.0898L14.6211 57.5H14.0117L14.0781 56.7539ZM13.2852 53.2734L14.3398 56.7695L14.3906 57.5H13.7812L12.3047 53.2734H13.2852ZM18.9922 56.6523V54.6367C18.9922 54.4857 18.9648 54.3555 18.9102 54.2461C18.8555 54.1367 18.7721 54.0521 18.6602 53.9922C18.5508 53.9323 18.4128 53.9023 18.2461 53.9023C18.0924 53.9023 17.9596 53.9284 17.8477 53.9805C17.7357 54.0326 17.6484 54.1029 17.5859 54.1914C17.5234 54.2799 17.4922 54.3802 17.4922 54.4922H16.5547C16.5547 54.3255 16.5951 54.1641 16.6758 54.0078C16.7565 53.8516 16.8737 53.7122 17.0273 53.5898C17.181 53.4674 17.3646 53.3711 17.5781 53.3008C17.7917 53.2305 18.0312 53.1953 18.2969 53.1953C18.6146 53.1953 18.8958 53.2487 19.1406 53.3555C19.388 53.4622 19.582 53.6237 19.7227 53.8398C19.8659 54.0534 19.9375 54.3216 19.9375 54.6445V56.5234C19.9375 56.7161 19.9505 56.8893 19.9766 57.043C20.0052 57.194 20.0456 57.3255 20.0977 57.4375V57.5H19.1328C19.0885 57.3984 19.0534 57.2695 19.0273 57.1133C19.0039 56.9544 18.9922 56.8008 18.9922 56.6523ZM19.1289 54.9297L19.1367 55.5117H18.4609C18.2865 55.5117 18.1328 55.5286 18 55.5625C17.8672 55.5938 17.7565 55.6406 17.668 55.7031C17.5794 55.7656 17.513 55.8411 17.4688 55.9297C17.4245 56.0182 17.4023 56.1185 17.4023 56.2305C17.4023 56.3424 17.4284 56.4453 17.4805 56.5391C17.5326 56.6302 17.6081 56.7018 17.707 56.7539C17.8086 56.806 17.931 56.832 18.0742 56.832C18.2669 56.832 18.4349 56.793 18.5781 56.7148C18.724 56.6341 18.8385 56.5365 18.9219 56.4219C19.0052 56.3047 19.0495 56.194 19.0547 56.0898L19.3594 56.5078C19.3281 56.6146 19.2747 56.7292 19.1992 56.8516C19.1237 56.974 19.0247 57.0911 18.9023 57.2031C18.7826 57.3125 18.638 57.4023 18.4688 57.4727C18.3021 57.543 18.1094 57.5781 17.8906 57.5781C17.6146 57.5781 17.3685 57.5234 17.1523 57.4141C16.9362 57.3021 16.7669 57.1523 16.6445 56.9648C16.5221 56.7747 16.4609 56.5599 16.4609 56.3203C16.4609 56.0964 16.5026 55.8984 16.5859 55.7266C16.6719 55.5521 16.7969 55.4062 16.9609 55.2891C17.1276 55.1719 17.3307 55.0833 17.5703 55.0234C17.8099 54.9609 18.0833 54.9297 18.3906 54.9297H19.1289ZM22.6484 56.8281C22.8021 56.8281 22.9401 56.7982 23.0625 56.7383C23.1875 56.6758 23.2878 56.5898 23.3633 56.4805C23.4414 56.3711 23.4844 56.2448 23.4922 56.1016H24.3789C24.3737 56.375 24.293 56.6237 24.1367 56.8477C23.9805 57.0716 23.7734 57.25 23.5156 57.3828C23.2578 57.513 22.9727 57.5781 22.6602 57.5781C22.3372 57.5781 22.056 57.5234 21.8164 57.4141C21.5768 57.3021 21.3776 57.1484 21.2188 56.9531C21.0599 56.7578 20.9401 56.5326 20.8594 56.2773C20.7812 56.0221 20.7422 55.7487 20.7422 55.457V55.3203C20.7422 55.0286 20.7812 54.7552 20.8594 54.5C20.9401 54.2422 21.0599 54.0156 21.2188 53.8203C21.3776 53.625 21.5768 53.4727 21.8164 53.3633C22.056 53.2513 22.3359 53.1953 22.6562 53.1953C22.9948 53.1953 23.2917 53.263 23.5469 53.3984C23.8021 53.5312 24.0026 53.7174 24.1484 53.957C24.2969 54.194 24.3737 54.4701 24.3789 54.7852H23.4922C23.4844 54.6289 23.4453 54.4883 23.375 54.3633C23.3073 54.2357 23.2109 54.1341 23.0859 54.0586C22.9635 53.9831 22.8164 53.9453 22.6445 53.9453C22.4544 53.9453 22.2969 53.9844 22.1719 54.0625C22.0469 54.138 21.9492 54.2422 21.8789 54.375C21.8086 54.5052 21.7578 54.6523 21.7266 54.8164C21.6979 54.9779 21.6836 55.1458 21.6836 55.3203V55.457C21.6836 55.6315 21.6979 55.8008 21.7266 55.9648C21.7552 56.1289 21.8047 56.276 21.875 56.4062C21.9479 56.5339 22.0469 56.6367 22.1719 56.7148C22.2969 56.7904 22.4557 56.8281 22.6484 56.8281ZM26.3281 57.0391L27.4766 53.2734H28.4844L26.7891 58.1445C26.75 58.2487 26.6992 58.362 26.6367 58.4844C26.5742 58.6068 26.4922 58.7227 26.3906 58.832C26.2917 58.944 26.168 59.0339 26.0195 59.1016C25.8711 59.1719 25.6914 59.207 25.4805 59.207C25.3971 59.207 25.3164 59.1992 25.2383 59.1836C25.1628 59.1706 25.0911 59.1562 25.0234 59.1406L25.0195 58.4219C25.0456 58.4245 25.0768 58.4271 25.1133 58.4297C25.1523 58.4323 25.1836 58.4336 25.207 58.4336C25.3633 58.4336 25.4935 58.4141 25.5977 58.375C25.7018 58.3385 25.7865 58.2786 25.8516 58.1953C25.9193 58.112 25.9766 58 26.0234 57.8594L26.3281 57.0391ZM25.6797 53.2734L26.6836 56.4375L26.8516 57.4297L26.1992 57.5977L24.6641 53.2734H25.6797ZM32.9102 54.6953V55.4453H30.8438V54.6953H32.9102ZM37.9727 51.8125V57.5H37V51.8125H37.9727ZM39.7578 51.8125V52.5938H35.2305V51.8125H39.7578ZM41.9023 57.5781C41.5898 57.5781 41.3073 57.5273 41.0547 57.4258C40.8047 57.3216 40.5911 57.1771 40.4141 56.9922C40.2396 56.8073 40.1055 56.5898 40.0117 56.3398C39.918 56.0898 39.8711 55.8203 39.8711 55.5312V55.375C39.8711 55.0443 39.9193 54.7448 40.0156 54.4766C40.112 54.2083 40.2461 53.9792 40.418 53.7891C40.5898 53.5964 40.793 53.4492 41.0273 53.3477C41.2617 53.2461 41.5156 53.1953 41.7891 53.1953C42.0911 53.1953 42.3555 53.2461 42.582 53.3477C42.8086 53.4492 42.9961 53.5924 43.1445 53.7773C43.2956 53.9596 43.4076 54.1771 43.4805 54.4297C43.556 54.6823 43.5938 54.9609 43.5938 55.2656V55.668H40.3281V54.9922H42.6641V54.918C42.6589 54.7487 42.625 54.5898 42.5625 54.4414C42.5026 54.293 42.4102 54.1732 42.2852 54.082C42.1602 53.9909 41.9935 53.9453 41.7852 53.9453C41.6289 53.9453 41.4896 53.9792 41.3672 54.0469C41.2474 54.112 41.1471 54.207 41.0664 54.332C40.9857 54.457 40.9232 54.6081 40.8789 54.7852C40.8372 54.9596 40.8164 55.1562 40.8164 55.375V55.5312C40.8164 55.7161 40.8411 55.888 40.8906 56.0469C40.9427 56.2031 41.0182 56.3398 41.1172 56.457C41.2161 56.5742 41.3359 56.6667 41.4766 56.7344C41.6172 56.7995 41.7773 56.832 41.957 56.832C42.1836 56.832 42.3854 56.7865 42.5625 56.6953C42.7396 56.6042 42.8932 56.4753 43.0234 56.3086L43.5195 56.7891C43.4284 56.9219 43.3099 57.0495 43.1641 57.1719C43.0182 57.2917 42.8398 57.3893 42.6289 57.4648C42.4206 57.5404 42.1784 57.5781 41.9023 57.5781ZM45.2734 54.0781V57.5H44.332V53.2734H45.2305L45.2734 54.0781ZM46.5664 53.2461L46.5586 54.1211C46.5013 54.1107 46.4388 54.1029 46.3711 54.0977C46.306 54.0924 46.2409 54.0898 46.1758 54.0898C46.0143 54.0898 45.8724 54.1133 45.75 54.1602C45.6276 54.2044 45.5247 54.2695 45.4414 54.3555C45.3607 54.4388 45.2982 54.5404 45.2539 54.6602C45.2096 54.7799 45.1836 54.9141 45.1758 55.0625L44.9609 55.0781C44.9609 54.8125 44.987 54.5664 45.0391 54.3398C45.0911 54.1133 45.1693 53.9141 45.2734 53.7422C45.3802 53.5703 45.513 53.4362 45.6719 53.3398C45.8333 53.2435 46.0195 53.1953 46.2305 53.1953C46.2878 53.1953 46.349 53.2005 46.4141 53.2109C46.4818 53.2214 46.5326 53.2331 46.5664 53.2461ZM48.0977 54.1328V57.5H47.1562V53.2734H48.043L48.0977 54.1328ZM47.9453 55.2305L47.625 55.2266C47.625 54.9349 47.6615 54.6654 47.7344 54.418C47.8073 54.1706 47.9141 53.9557 48.0547 53.7734C48.1953 53.5885 48.3698 53.4466 48.5781 53.3477C48.7891 53.2461 49.0326 53.1953 49.3086 53.1953C49.5013 53.1953 49.6771 53.224 49.8359 53.2812C49.9974 53.3359 50.1367 53.4232 50.2539 53.543C50.3737 53.6628 50.4648 53.8164 50.5273 54.0039C50.5924 54.1914 50.625 54.418 50.625 54.6836V57.5H49.6836V54.7656C49.6836 54.5599 49.6523 54.3984 49.5898 54.2812C49.5299 54.1641 49.4427 54.0807 49.3281 54.0312C49.2161 53.9792 49.082 53.9531 48.9258 53.9531C48.7487 53.9531 48.5977 53.987 48.4727 54.0547C48.3503 54.1224 48.25 54.2148 48.1719 54.332C48.0938 54.4492 48.0365 54.5846 48 54.7383C47.9635 54.8919 47.9453 55.056 47.9453 55.2305ZM50.5664 54.9805L50.125 55.0781C50.125 54.8229 50.1602 54.582 50.2305 54.3555C50.3034 54.1263 50.4089 53.9258 50.5469 53.7539C50.6875 53.5794 50.8607 53.4427 51.0664 53.3438C51.2721 53.2448 51.5078 53.1953 51.7734 53.1953C51.9896 53.1953 52.1823 53.2253 52.3516 53.2852C52.5234 53.3424 52.6693 53.4336 52.7891 53.5586C52.9089 53.6836 53 53.8464 53.0625 54.0469C53.125 54.2448 53.1562 54.4844 53.1562 54.7656V57.5H52.2109V54.7617C52.2109 54.5482 52.1797 54.3828 52.1172 54.2656C52.0573 54.1484 51.9714 54.0677 51.8594 54.0234C51.7474 53.9766 51.6133 53.9531 51.457 53.9531C51.3112 53.9531 51.1823 53.9805 51.0703 54.0352C50.9609 54.0872 50.8685 54.1615 50.793 54.2578C50.7174 54.3516 50.6602 54.4596 50.6211 54.582C50.5846 54.7044 50.5664 54.8372 50.5664 54.9805ZM56.4961 56.3555C56.4961 56.2617 56.4727 56.1771 56.4258 56.1016C56.3789 56.0234 56.2891 55.9531 56.1562 55.8906C56.026 55.8281 55.8333 55.7708 55.5781 55.7188C55.3542 55.6693 55.1484 55.6107 54.9609 55.543C54.776 55.4727 54.6172 55.388 54.4844 55.2891C54.3516 55.1901 54.2487 55.0729 54.1758 54.9375C54.1029 54.8021 54.0664 54.6458 54.0664 54.4688C54.0664 54.2969 54.1042 54.1341 54.1797 53.9805C54.2552 53.8268 54.3633 53.6914 54.5039 53.5742C54.6445 53.457 54.8151 53.3646 55.0156 53.2969C55.2188 53.2292 55.4453 53.1953 55.6953 53.1953C56.0495 53.1953 56.3529 53.2552 56.6055 53.375C56.8607 53.4922 57.056 53.6523 57.1914 53.8555C57.3268 54.056 57.3945 54.2826 57.3945 54.5352H56.4531C56.4531 54.4232 56.4245 54.319 56.3672 54.2227C56.3125 54.1237 56.2292 54.0443 56.1172 53.9844C56.0052 53.9219 55.8646 53.8906 55.6953 53.8906C55.5339 53.8906 55.3997 53.9167 55.293 53.9688C55.1888 54.0182 55.1107 54.0833 55.0586 54.1641C55.0091 54.2448 54.9844 54.3333 54.9844 54.4297C54.9844 54.5 54.9974 54.5638 55.0234 54.6211C55.0521 54.6758 55.099 54.7266 55.1641 54.7734C55.2292 54.8177 55.3177 54.8594 55.4297 54.8984C55.5443 54.9375 55.6875 54.9753 55.8594 55.0117C56.1823 55.0794 56.4596 55.1667 56.6914 55.2734C56.9258 55.3776 57.1055 55.513 57.2305 55.6797C57.3555 55.8438 57.418 56.0521 57.418 56.3047C57.418 56.4922 57.3776 56.6641 57.2969 56.8203C57.2188 56.974 57.1042 57.1081 56.9531 57.2227C56.8021 57.3346 56.6211 57.4219 56.4102 57.4844C56.2018 57.5469 55.9674 57.5781 55.707 57.5781C55.3242 57.5781 55 57.5104 54.7344 57.375C54.4688 57.237 54.2669 57.0612 54.1289 56.8477C53.9935 56.6315 53.9258 56.4076 53.9258 56.1758H54.8359C54.8464 56.3503 54.8945 56.4896 54.9805 56.5938C55.069 56.6953 55.1784 56.7695 55.3086 56.8164C55.4414 56.8607 55.5781 56.8828 55.7188 56.8828C55.888 56.8828 56.0299 56.8607 56.1445 56.8164C56.2591 56.7695 56.3464 56.707 56.4062 56.6289C56.4661 56.5482 56.4961 56.457 56.4961 56.3555Z" fill="#685870"/>
</svg>
